<svg height="512pt" viewBox="1 1 511.99998 511.99998" width="512pt" xmlns="http://www.w3.org/2000/svg"><path d="m512 256c0 141.386719-114.613281 256-256 256s-256-114.613281-256-256 114.613281-256 256-256 256 114.613281 256 256zm0 0" fill="#3c474d"/><path d="m392.804688 256c0 75.554688-61.25 136.804688-136.804688 136.804688s-136.804688-61.25-136.804688-136.804688 61.25-136.804688 136.804688-136.804688 136.804688 61.25 136.804688 136.804688zm0 0" fill="#efedee"/><path d="m256 42.988281c-58.824219 0-112.074219 23.839844-150.621094 62.390625l5.339844 73.066406h67.726562c19.847657-19.847656 47.269532-32.125 77.554688-32.125s57.707031 12.277344 77.554688 32.125h67.726562l5.339844-73.066406c-38.546875-38.550781-91.796875-62.390625-150.621094-62.390625zm0 0" fill="#ffcd38"/><path d="m256 469.011719c-58.824219 0-112.074219-23.839844-150.621094-62.390625l5.339844-73.066406h67.726562c19.847657 19.847656 47.269532 32.125 77.554688 32.125s57.707031-12.277344 77.554688-32.125h67.726562l5.339844 73.066406c-38.546875 38.550781-91.796875 62.390625-150.621094 62.390625zm0 0" fill="#da5b65"/><g fill="#3a484a"><path d="m186.949219 417.574219c-4.265625 0-7.726563-3.460938-7.726563-7.726563v-12.5c0-4.265625 3.460938-7.726562 7.726563-7.726562s7.726562 3.460937 7.726562 7.726562v12.5c0 4.265625-3.460937 7.726563-7.726562 7.726563zm0 0"/><path d="m325.050781 417.574219c-4.265625 0-7.726562-3.460938-7.726562-7.726563v-12.5c0-4.265625 3.460937-7.726562 7.726562-7.726562s7.726563 3.460937 7.726563 7.726562v12.5c0 4.265625-3.460938 7.726563-7.726563 7.726563zm0 0"/><path d="m256 424.242188c-8.871094 0-17.203125-3.710938-22.859375-10.179688-2.808594-3.214844-2.480469-8.097656.730469-10.902344 3.214844-2.808594 8.097656-2.484375 10.902344.730469 2.722656 3.113281 6.8125 4.898437 11.226562 4.898437s8.503906-1.785156 11.226562-4.898437c2.804688-3.214844 7.6875-3.539063 10.902344-.730469 3.210938 2.808594 3.539063 7.6875.730469 10.902344-5.65625 6.46875-13.988281 10.179688-22.859375 10.179688zm0 0"/></g><path d="m365.679688 256c0 30.285156-12.277344 57.707031-32.125 77.554688l73.066406 73.066406c38.550781-38.546875 62.390625-91.796875 62.390625-150.621094s-23.839844-112.074219-62.390625-150.621094l-73.066406 73.066406c19.847656 19.847657 32.125 47.269532 32.125 77.554688zm0 0" fill="#3ac7b4"/><path d="m276.5 43.976562c-6.84375-.617187-13.628906-.988281-20.5-.988281-58.824219 0-112.074219 23.839844-150.621094 62.386719l3.699219 50.652344c9.96875-18.71875 22.636719-35.78125 37.507813-50.652344 33.992187-33.992188 79.417968-56.535156 130.015624-61.390625-.035156-.003906-.066406-.007813-.101562-.007813zm0 0" fill="#e7b835"/><path d="m256.722656 469c3.011719-.007812 6.019532-.089844 9.027344-.21875.21875-.011719.4375-.015625.652344-.027344 3.421875-.167968 6.824218-.414062 10.203125-.738281-50.597657-4.855469-96.027344-27.398437-130.019531-61.394531-14.871094-14.867188-27.539063-31.929688-37.507813-50.648438l-3.699219 50.648438c39.699219 39.699218 94.46875 62.390625 150.621094 62.390625.242188 0 .480469-.007813.722656-.011719zm0 0" fill="#c0344a"/><path d="m146.320312 256c0-30.285156 12.277344-57.707031 32.125-77.554688l-73.066406-73.066406c-38.550781 38.546875-62.390625 91.796875-62.390625 150.621094s23.839844 112.074219 62.390625 150.621094l73.066406-73.066406c-19.847656-19.847657-32.125-47.269532-32.125-77.554688zm0 0" fill="#ff8c57"/><path d="m127.398438 384.601562c-27.109376-35.738281-43.203126-80.285156-43.203126-128.601562s16.09375-92.863281 43.203126-128.601562c0 0-22.019532-22.019532-22.023438-22.023438-1.25-1.164062-26.582031 32.308594-28.828125 35.8125-21.242187 33.132812-33.558594 72.53125-33.558594 114.8125 0 37.058594 9.746094 73.894531 28.222657 106.027344 9.359374 16.28125 20.886718 31.316406 34.167968 44.59375zm0 0" fill="#ec6a34"/><path d="m369.878906 142.121094s-135.148437 85.125-138.890625 88.871094c-13.8125 13.8125-13.8125 36.207031 0 50.019531s36.207031 13.8125 50.019531 0c3.746094-3.742188 88.871094-138.890625 88.871094-138.890625zm0 0" fill="#da5b65"/><path d="m265.957031 256c0 5.5-4.457031 9.957031-9.957031 9.957031s-9.957031-4.457031-9.957031-9.957031 4.457031-9.957031 9.957031-9.957031 9.957031 4.457031 9.957031 9.957031zm0 0" fill="#3c474d"/></svg>