<?xml version="1.0" encoding="utf-8"?>
<!-- Generator: Adobe Illustrator 16.0.0, SVG Export Plug-In . SVG Version: 6.00 Build 0)  -->
<!DOCTYPE svg PUBLIC "-//W3C//DTD SVG 1.1//EN" "http://www.w3.org/Graphics/SVG/1.1/DTD/svg11.dtd">
<svg version="1.1" id="Layer_1" xmlns="http://www.w3.org/2000/svg" xmlns:xlink="http://www.w3.org/1999/xlink" x="0px" y="0px"
	 width="31px" height="30.205px" viewBox="0 0 31 30.205" enable-background="new 0 0 31 30.205" xml:space="preserve">
<g display="none">
	<path display="inline" fill="#5A378C" d="M17.785,21.453c2.594,2.594,5.126,5.125,7.675,7.671c-0.297,0.207-0.636,0.27-0.994,0.27
		c-2.929,0-5.855,0-8.783,0c-4.332,0-8.662,0-12.994,0.001c-0.354,0-0.688-0.063-0.965-0.24c2.537-2.534,5.073-5.065,7.633-7.622
		c0.014,0.014,0.083,0.075,0.148,0.14c0.752,0.75,1.502,1.503,2.256,2.254c1.047,1.045,2.563,1.047,3.617,0.004
		c0.75-0.742,1.493-1.49,2.235-2.237C17.681,21.624,17.727,21.536,17.785,21.453z"/>
	<path display="inline" fill="#5A378C" d="M1.868,12.792c0.777-0.661,1.6-1.361,2.422-2.061c2.721-2.317,5.441-4.633,8.161-6.95
		c0.661-0.562,1.572-0.565,2.225-0.008c3.483,2.966,6.967,5.933,10.45,8.9c0.06,0.049,0.117,0.103,0.146,0.131
		c-1.338,1.344-2.671,2.686-4.021,4.042c0-0.11,0-0.22,0-0.329c0-1.51-0.012-3.017,0.008-4.524c0.008-0.648-0.279-1.099-0.833-1.358
		c-0.321-0.15-0.697-0.265-1.049-0.268c-3.869-0.018-7.739-0.012-11.608-0.009c-0.427,0-0.829,0.112-1.191,0.338
		c-0.468,0.292-0.724,0.693-0.719,1.272c0.017,1.621,0.007,3.241,0.007,4.814C4.547,15.467,3.212,14.133,1.868,12.792z"/>
	<path display="inline" fill="#5A378C" d="M1.017,28.582C0.861,28.14,0.81,27.925,0.81,27.625c-0.013-4.4-0.01-8.804-0.007-13.205
		c0.001-0.392,0.116-0.749,0.365-1.046c2.517,2.517,5.024,5.023,7.518,7.518C6.16,23.425,3.627,25.964,1.017,28.582z"/>
	<path display="inline" fill="#5A378C" d="M26.058,28.514c-2.552-2.55-5.082-5.08-7.593-7.591c2.494-2.496,4.999-4.998,7.516-7.515
		c0.244,0.304,0.335,0.682,0.334,1.09c0,2.509,0,5.018,0,7.527c0,1.847,0,3.694,0,5.541C26.314,27.903,26.251,28.219,26.058,28.514z
		"/>
	<path display="inline" fill="#5A378C" d="M15.765,19.852c0.043,0.1,0.092,0.215,0.149,0.345c-0.518,0.329-1.066,0.537-1.654,0.643
		c-0.955,0.172-1.896,0.112-2.798-0.26c-1.462-0.6-2.243-1.729-2.38-3.281c-0.202-2.271,0.858-4.139,2.831-5.015
		c1.461-0.649,2.958-0.731,4.414,0.024c1.293,0.673,1.943,2.036,1.715,3.462c-0.23,1.438-1.231,2.491-2.659,2.765
		c-0.295,0.057-0.607,0.06-0.907,0.037c-0.347-0.024-0.474-0.188-0.456-0.541c0.013-0.241,0.062-0.482,0.097-0.724
		c0.01-0.081,0.02-0.163,0.025-0.22c-0.319,0.299-0.624,0.622-0.969,0.896c-0.269,0.214-0.573,0.4-0.887,0.536
		c-0.462,0.201-0.837,0.032-0.936-0.463c-0.082-0.409-0.091-0.853-0.022-1.264c0.276-1.642,1.816-2.928,3.405-2.866
		c0.37,0.014,0.737,0.108,1.128,0.169c-0.115,0.513-0.235,1.018-0.341,1.524c-0.118,0.555-0.231,1.109-0.327,1.666
		c-0.107,0.633,0.072,0.779,0.674,0.572c0.411-0.142,0.742-0.4,0.963-0.767c0.62-1.026,0.717-2.114,0.206-3.195
		c-0.449-0.949-1.304-1.384-2.31-1.497c-2.698-0.302-4.741,1.68-4.635,4.472c0.075,2.01,1.4,3.332,3.41,3.381
		c0.381,0.009,0.77-0.017,1.144-0.082C15.017,20.104,15.376,19.967,15.765,19.852z M12.558,17.002
		c0.009,0.072,0.014,0.194,0.04,0.313c0.061,0.273,0.194,0.34,0.43,0.202c0.163-0.096,0.312-0.221,0.455-0.346
		c0.716-0.628,0.979-1.479,1.148-2.37c0.01-0.059-0.067-0.17-0.13-0.199c-0.55-0.257-1.094-0.074-1.43,0.48
		C12.725,15.657,12.604,16.293,12.558,17.002z"/>
</g>
<g>
	<path fill-rule="evenodd" clip-rule="evenodd" fill="#5A378C" d="M23.259,9.54c-1.316-1.336-2.618-2.653-3.906-3.963
		c0.521-0.521,1.044-1.041,1.561-1.562c0.763,0.765,1.542,1.545,2.333,2.336c1.918-1.935,3.82-3.859,5.733-5.786
		c0.525,0.543,1.039,1.079,1.569,1.625C28.119,4.639,25.693,7.083,23.259,9.54z"/>
</g>
<g>
	<path fill-rule="evenodd" clip-rule="evenodd" fill="#5A378C" d="M27.764,9.202c-1.318,0.135-1.318,0.135-1.318,1.406
		c0,3.008,0.002,12.018,0,15.024c-0.002,1.289-0.34,1.632-1.611,1.632c-6.904,0-13.809,0-20.713,0c-1.213,0-1.563-0.34-1.563-1.523
		c-0.001-4.923-0.001-9.845,0-14.767c0-1.26,0.323-1.585,1.563-1.585c5.15-0.003,10.3-0.003,15.45-0.004c0.248,0,0.494,0,0.775,0
		c0.068-0.485,0.133-0.923,0.207-1.455c-0.314,0-0.559,0-0.801,0c-5.333,0-10.665-0.003-15.998,0c-1.805,0-2.628,0.823-2.628,2.628
		c-0.002,5.194-0.002,10.39,0,15.587c0,1.726,0.826,2.552,2.547,2.552c7.201,0.001,14.401,0.001,21.604,0
		c1.695,0,2.516-0.806,2.52-2.501c0.008-3.463,0.002-12.928,0.002-16.391C27.799,9.603,27.775,9.404,27.764,9.202z"/>
	<path fill-rule="evenodd" clip-rule="evenodd" fill="#5A378C" d="M12.547,18.879c1.205,0.623,2.213,1.481,2.749,2.735
		c0.313,0.739,0.446,1.562,0.618,2.355c0.109,0.508-0.059,0.94-0.644,0.985c-0.58,0.046-0.76-0.326-0.8-0.865
		c-0.193-2.725-2.362-4.531-5.058-4.233c-2.008,0.223-3.701,1.995-3.83,4.011c-0.009,0.138,0.003,0.276-0.022,0.41
		c-0.08,0.431-0.311,0.718-0.784,0.684c-0.467-0.032-0.686-0.329-0.681-0.777c0.019-1.468,0.494-2.78,1.503-3.846
		c0.541-0.569,1.2-1.028,1.831-1.559c-0.772-0.798-1.194-1.821-1.096-3.016c0.078-0.941,0.474-1.754,1.178-2.389
		c1.425-1.284,3.585-1.288,4.98-0.025C14.059,14.771,14.089,16.79,12.547,18.879z M7.79,16.12c0.012,1.218,1.009,2.22,2.217,2.225
		c1.213,0.006,2.289-1.072,2.262-2.267c-0.028-1.207-1.047-2.219-2.238-2.223C8.789,13.85,7.779,14.872,7.79,16.12z"/>
	<path fill-rule="evenodd" clip-rule="evenodd" fill="#5A378C" d="M24.822,12.447c0,0.467,0,0.891,0,1.359c-1.941,0-3.863,0-5.832,0
		c0-0.45,0-0.889,0-1.359C20.945,12.447,22.869,12.447,24.822,12.447z"/>
	<path fill-rule="evenodd" clip-rule="evenodd" fill="#5A378C" d="M24.816,16.903c0,0.44,0,0.863,0,1.35c-1.934,0-3.867,0-5.836,0
		c0-0.445,0-0.871,0-1.35C20.914,16.903,22.848,16.903,24.816,16.903z"/>
	<path fill-rule="evenodd" clip-rule="evenodd" fill="#5A378C" d="M24.733,21.403c0,0.44,0,0.863,0,1.35c-1.934,0-3.867,0-5.836,0
		c0-0.445,0-0.871,0-1.35C20.831,21.403,22.765,21.403,24.733,21.403z"/>
</g>
</svg>
