<?xml version="1.0" encoding="utf-8"?>
<!-- Generator: Adobe Illustrator 16.0.0, SVG Export Plug-In . SVG Version: 6.00 Build 0)  -->
<!DOCTYPE svg PUBLIC "-//W3C//DTD SVG 1.1//EN" "http://www.w3.org/Graphics/SVG/1.1/DTD/svg11.dtd">
<svg version="1.1" id="Layer_1" xmlns="http://www.w3.org/2000/svg" xmlns:xlink="http://www.w3.org/1999/xlink" x="0px" y="0px"
	 width="31px" height="30.205px" viewBox="0 0 31 30.205" enable-background="new 0 0 31 30.205" xml:space="preserve">
<g>
	<path fill-rule="evenodd" clip-rule="evenodd" fill="#5A378C" d="M16.164,5.884c0.507-0.508,1.014-1.014,1.521-1.521
		c-0.203-0.917-0.956-1.537-1.949-1.538C12.053,2.819,8.37,2.819,4.684,2.832c-0.302,0-0.626,0.069-0.9,0.197
		c-0.78,0.364-1.111,1.026-1.111,1.867C2.668,8.64,2.67,12.379,2.67,16.123c0,3.744-0.001,7.483,0.001,11.225
		c0,1.207,0.805,2.07,1.97,2.072c3.713,0.006,7.426,0.001,11.138,0.001c0.439,0,0.846-0.133,1.196-0.405
		c0.553-0.434,0.768-1.014,0.767-1.699c-0.003-6.611-0.001-13.221-0.001-19.832C17.219,6.954,16.684,6.413,16.164,5.884z
		 M7.335,4.062C7.389,4.021,7.47,4.004,7.538,4.004C9.318,4,11.096,4.003,12.877,4c0.164,0,0.265,0.074,0.297,0.227
		c0.027,0.125,0.043,0.26,0.027,0.387c-0.03,0.237-0.134,0.321-0.381,0.321c-0.871,0.002-1.741,0.001-2.615,0.001
		c-0.857,0-1.715-0.002-2.572,0.002C7.456,4.938,7.303,4.918,7.236,4.717C7.161,4.485,7.194,4.166,7.335,4.062z M10.203,27.506
		c-0.676-0.001-1.234-0.561-1.229-1.235c0-0.679,0.552-1.224,1.235-1.223c0.682,0,1.23,0.545,1.228,1.226
		C11.437,26.948,10.88,27.506,10.203,27.506z M16.262,23.267c-4.046,0-8.075,0-12.116,0c0-5.723,0-11.43,0-17.156
		c4.032,0,8.068,0,12.116,0C16.262,11.82,16.262,17.531,16.262,23.267z"/>
	<g>
		<path fill-rule="evenodd" clip-rule="evenodd" fill="#5A378C" d="M21.04,9.758c-1.316-1.336-2.618-2.653-3.906-3.963
			c0.521-0.521,1.044-1.041,1.561-1.562c0.763,0.765,1.542,1.545,2.333,2.336c1.918-1.935,3.82-3.859,5.733-5.786
			c0.525,0.543,1.039,1.079,1.569,1.625C25.9,4.857,23.475,7.301,21.04,9.758z"/>
	</g>
</g>
</svg>
