<?xml version="1.0" encoding="utf-8"?>
<!-- Generator: Adobe Illustrator 16.0.0, SVG Export Plug-In . SVG Version: 6.00 Build 0)  -->
<!DOCTYPE svg PUBLIC "-//W3C//DTD SVG 1.1//EN" "http://www.w3.org/Graphics/SVG/1.1/DTD/svg11.dtd">
<svg version="1.1" id="Layer_1" xmlns="http://www.w3.org/2000/svg" xmlns:xlink="http://www.w3.org/1999/xlink" x="0px" y="0px"
	 width="31px" height="30.205px" viewBox="0 0 31 30.205" enable-background="new 0 0 31 30.205" xml:space="preserve">
<g>
	<path fill-rule="evenodd" clip-rule="evenodd" fill="#5A378C" d="M15.495,27.141c-4.149,0.001-8.298,0.001-12.447,0
		c-0.173,0-0.351,0.011-0.525-0.002c-1.36-0.074-1.925-1.126-1.215-2.295c1.211-1.985,2.434-3.955,3.654-5.932
		c3.071-4.981,6.142-9.964,9.218-14.94c0.757-1.22,1.846-1.21,2.63,0c0.061,0.093,0.119,0.185,0.176,0.277
		c2.911,4.718,5.818,9.438,8.728,14.153c1.3,2.11,2.601,4.219,3.903,6.32c0.332,0.532,0.544,1.07,0.227,1.665
		c-0.34,0.623-0.927,0.755-1.571,0.754C24.011,27.141,19.758,27.141,15.495,27.141z M17.288,14.192c0.011,0,0.052-2.193,0.027-3.288
		c-0.028-1.204-0.769-1.949-1.861-1.932c-1.045,0.016-1.774,0.784-1.779,1.944c-0.015,2.168-0.009,4.34,0.004,6.513
		c0.001,0.294,0.051,0.616,0.164,0.888c0.319,0.791,1.13,1.196,1.986,1.057c0.761-0.122,1.413-0.758,1.44-1.566
		C17.326,16.606,17.288,15.398,17.288,14.192z M15.493,24.391c1.029,0,1.833-0.807,1.816-1.826
		c-0.011-0.987-0.808-1.797-1.785-1.815c-0.984-0.024-1.851,0.825-1.847,1.815C13.68,23.604,14.462,24.391,15.493,24.391z"/>
</g>
</svg>
